<svg xmlns="http://www.w3.org/2000/svg" version="1.1" xmlns:xlink="http://www.w3.org/1999/xlink" width="512" height="512" x="0" y="0" viewBox="0 0 512 512" style="enable-background:new 0 0 512 512" xml:space="preserve" class=""><g><path d="M84.446 317.403H13.082C5.649 317.403 0 312.348 0 303.724c0-2.378 39.246-146.295 39.246-146.295 3.568-7.434 10.11-10.11 16.354-10.11 6.839 0 23.99 4.614 23.99 13.536 0 1.487.073 4.603-.82 6.386L49.655 281.423h34.791v-31.221c0-8.622 9.812-12.191 19.327-12.191 9.814 0 19.328 3.568 19.328 12.191v31.221h13.975c8.029 0 12.192 8.921 12.192 18.138 0 8.92-5.949 17.842-12.192 17.842h-13.975v35.087c0 8.029-9.515 12.191-19.328 12.191-9.515 0-19.327-4.163-19.327-12.191v-35.087zM390.515 199.571c6.446-23.746 11.462-42.142 11.462-42.142 3.568-7.434 10.11-10.11 16.354-10.11 6.839 0 23.99 4.614 23.99 13.536 0 1.487.073 4.603-.82 6.386l-29.114 114.182h34.791v-31.221c0-8.622 9.812-12.191 19.327-12.191 9.814 0 19.328 3.568 19.328 12.191v31.221h13.975c8.029 0 12.192 8.921 12.192 18.138 0 8.92-5.949 17.842-12.192 17.842h-13.975v35.087c0 8.029-9.515 12.191-19.328 12.191-9.515 0-19.327-4.163-19.327-12.191v-35.087h-71.365c-7.433 0-13.082-5.055-13.082-13.679 0-1.191 9.84-37.869 19.666-74.197l8.118-29.956z" style="" fill="#fcc63d" data-original="#fcc63d" class=""></path><circle cx="256.009" cy="263.073" r="88.481" style="" fill="#f9572b" data-original="#f9572b" class=""></circle><path d="m267.088 263.076 30.777-30.777a7.837 7.837 0 0 0-11.083-11.082l-30.777 30.777-30.777-30.777a7.838 7.838 0 0 0-11.083 11.082l30.777 30.777-30.777 30.777a7.837 7.837 0 0 0 5.542 13.378 7.813 7.813 0 0 0 5.542-2.296l30.777-30.777 30.777 30.777c1.531 1.53 3.537 2.296 5.542 2.296s4.011-.765 5.542-2.296a7.837 7.837 0 0 0 0-11.082l-30.779-30.777z" style="" fill="#ffffff" data-original="#ffffff" class=""></path></g></svg>